<?xml version="1.0" encoding="UTF-8"?>
<svg width="208px" height="237px" viewBox="0 0 208 237" version="1.1" xmlns="http://www.w3.org/2000/svg" xmlns:xlink="http://www.w3.org/1999/xlink">
    <!-- Generator: Sketch 53.2 (72643) - https://sketchapp.com -->
    <title>dev-portal</title>
    <desc>Created with Sketch.</desc>
    <g id="Page-1" stroke="none" stroke-width="1" fill="none" fill-rule="evenodd">
        <g id="dev-portal" fill="#454548" fill-rule="nonzero">
            <path d="M80.7523988,75.2148438 L78.848102,75.5078125 C78.4249228,75.572917 78.0505776,75.6054688 77.7250551,75.6054688 C75.7068158,75.6054688 74.0629521,75.035813 72.7934145,73.8964844 C71.5238769,72.7571558 70.8891176,71.243499 70.8891176,69.3554688 C70.8891176,67.7929609 71.4424975,66.4257871 72.5492738,65.2539062 C73.6560502,64.0820254 75.2510863,63.2031279 77.3344301,62.6171875 L106.338336,54.8046875 C107.054486,54.609374 107.754349,54.4628911 108.437946,54.3652344 C109.121543,54.2675776 109.821406,54.21875 110.537555,54.21875 C111.77454,54.21875 112.751093,54.7884058 113.467243,55.9277344 C114.183392,57.067063 114.541461,58.6132715 114.541461,60.5664062 L114.541461,166.230469 L130.166461,166.230469 C135.960761,166.230469 139.63911,166.702469 141.201618,167.646484 C142.764125,168.5905 143.545368,170.36457 143.545368,172.96875 C143.545368,175.312512 142.894332,177.070307 141.592243,178.242188 C140.290153,179.414068 138.337047,180 135.732868,180 L77.3344301,180 C74.7302504,180 72.7771449,179.414068 71.4750551,178.242188 C70.1729652,177.070307 69.5219301,175.312512 69.5219301,172.96875 C69.5219301,170.36457 70.3031723,168.5905 71.8656801,167.646484 C73.4281879,166.702469 77.1065365,166.230469 82.9008363,166.230469 L99.1117738,166.230469 L99.1117738,70.8203125 L80.7523988,75.2148438 Z" id="[1]"></path>
            <path d="M26.4994692,217.539062 L51.9291567,217.539062 C54.8556036,217.539062 57.2269991,218.346346 59.0434145,219.960938 C60.8598298,221.575529 61.7680238,223.745104 61.7680238,226.469727 C61.7680238,229.396173 60.910285,231.742341 59.1947817,233.508301 C57.4792783,235.27426 55.158338,236.157227 52.231891,236.157227 L11.5141176,236.157227 C8.38584674,236.157227 5.76217506,235.198577 3.64302384,233.28125 C1.52387262,231.363923 0.464312905,228.992527 0.464312905,226.166992 L0.464312905,10.46875 C0.464312905,7.64321504 1.52387262,5.27181948 3.64302384,3.35449219 C5.76217506,1.43716489 8.38584674,0.478515625 11.5141176,0.478515625 L52.231891,0.478515625 C55.158338,0.478515625 57.4792783,1.31102683 59.1947817,2.97607422 C60.910285,4.64112161 61.7680238,6.93683433 61.7680238,9.86328125 C61.7680238,12.5879042 60.8598298,14.8079341 59.0434145,16.5234375 C57.2269991,18.2389409 54.8556036,19.0966797 51.9291567,19.0966797 L26.4994692,19.0966797 L26.4994692,217.539062 Z" id="Path"></path>
            <path d="M181.782672,19.0966797 L156.352985,19.0966797 C153.325626,19.0966797 150.929003,18.2641685 149.163043,16.5991211 C147.397084,14.9340737 146.514118,12.6888162 146.514118,9.86328125 C146.514118,6.93683433 147.346629,4.64112161 149.011676,2.97607422 C150.676724,1.31102683 153.022892,0.478515625 156.05025,0.478515625 L196.616657,0.478515625 C199.845839,0.478515625 202.519966,1.43716489 204.639118,3.35449219 C206.758269,5.27181948 207.817829,7.64321504 207.817829,10.46875 L207.817829,226.166992 C207.817829,228.992527 206.758269,231.363923 204.639118,233.28125 C202.519966,235.198577 199.845839,236.157227 196.616657,236.157227 L156.05025,236.157227 C153.123803,236.157227 150.802863,235.27426 149.08736,233.508301 C147.371856,231.742341 146.514118,229.396173 146.514118,226.469727 C146.514118,223.644192 147.397084,221.449389 149.163043,219.885254 C150.929003,218.321118 153.325626,217.539062 156.352985,217.539062 L181.782672,217.539062 L181.782672,19.0966797 Z" id="Path"></path>
        </g>
    </g>
</svg>