<?xml version="1.0" encoding="UTF-8" standalone="no"?>
<svg
   width="36px"
   height="36px"
   viewBox="0 0 36 36"
   xmlns="http://www.w3.org/2000/svg"
   xmlns:svg="http://www.w3.org/2000/svg">
  <path
     fill="#ffffff"
     d="m 8.8844426,22.68715 c 0,1.896506 -1.5460634,3.444774 -3.4479016,3.444774 A 3.4593781,3.4496785 0 0 1 1.987,22.68715 3.4593781,3.4496785 0 0 1 5.436541,19.244011 h 3.4479016 z m 1.7395264,0 c 0,-1.896505 1.547703,-3.443139 3.449541,-3.443139 a 3.4593781,3.4496785 0 0 1 3.447901,3.443139 v 8.622562 A 3.4593781,3.4496785 0 0 1 14.07351,34.75285 3.4560991,3.4464086 0 0 1 10.623969,31.309712 Z M 14.07351,8.8639125 c -1.901838,0 -3.449541,-1.5499029 -3.449541,-3.4447737 C 10.623969,3.524268 12.171672,1.976 14.07351,1.976 a 3.4593781,3.4496785 0 0 1 3.447901,3.4431388 v 3.4447737 z m 0,1.7330135 A 3.4593781,3.4496785 0 0 1 17.521411,14.0417 3.4593781,3.4496785 0 0 1 14.07351,17.484839 H 5.4381806 A 3.4593781,3.4496785 0 0 1 1.9886395,14.0417 3.4593781,3.4496785 0 0 1 5.4381806,10.596926 Z M 27.922499,14.0417 c 0,-1.896506 1.546063,-3.444774 3.447901,-3.444774 A 3.4593781,3.4496785 0 0 1 34.819941,14.0417 3.4593781,3.4496785 0 0 1 31.3704,17.484839 h -3.447901 z m -1.739526,0 c 0,1.896506 -1.547703,3.443139 -3.449541,3.443139 A 3.4593781,3.4496785 0 0 1 19.28553,14.0417 V 5.4191388 A 3.4593781,3.4496785 0 0 1 22.733432,1.976 c 1.901838,0 3.449541,1.5466331 3.449541,3.4431388 z m -3.449541,13.823238 c 1.901838,0 3.449541,1.549903 3.449541,3.444774 0,1.89487 -1.547703,3.443138 -3.449541,3.443138 A 3.4593781,3.4496785 0 0 1 19.28553,31.309712 v -3.444774 z m 0,-1.733014 A 3.4593781,3.4496785 0 0 1 19.28553,22.68715 3.4593781,3.4496785 0 0 1 22.733432,19.244011 H 31.3704 a 3.4593781,3.4496785 0 0 1 3.449541,3.443139 3.4593781,3.4496785 0 0 1 -3.449541,3.444774 z"
     id="path824"
     style="stroke-width:1.63722" />
</svg>
