<svg xmlns="http://www.w3.org/2000/svg" width="13" height="13" viewBox="0 0 13 13" fill="none">
<path fill-rule="evenodd" clip-rule="evenodd" d="M0 1.5C0 0.67157 0.67157 0 1.5 0H4.5C5.32843 0 6 0.67157 6 1.5V4.5C6 5.32843 5.32843 6 4.5 6H1.5C0.67157 6 0 5.32843 0 4.5V1.5ZM7 1.5C7 0.67157 7.67157 0 8.5 0H11.5C12.3284 0 13 0.67157 13 1.5V4.5C13 5.32843 12.3284 6 11.5 6H8.5C7.67157 6 7 5.32843 7 4.5V1.5ZM1.5 7C0.67157 7 0 7.67157 0 8.5V11.5C0 12.3284 0.67157 13 1.5 13H4.5C5.32843 13 6 12.3284 6 11.5V8.5C6 7.67157 5.32843 7 4.5 7H1.5ZM7 8.5C7 7.67157 7.67157 7 8.5 7H11.5C12.3284 7 13 7.67157 13 8.5V11.5C13 12.3284 12.3284 13 11.5 13H8.5C7.67157 13 7 12.3284 7 11.5V8.5Z" fill="white"/>
</svg>